# xmcd
#
# Track frame offsets:
#	150
#	15903
#	29813
#	44998
#	60875
#	76368
#	91953
#	108025
#	120815
#	136033
#
# Disc length: 1980 seconds
#
# Revision: 6
# Processed by: cddbd v1.5.1PL2 Copyright (c) Steve Scherf et al.
# Submitted via: dBpowerAMP V4.0
#
DISCID=6e07ba0a
DTITLE=Toby Keith - Toby Keith
DYEAR=1993
DGENRE=Country
TTITLE0=Should've Been A Cowboy
TTITLE1=He Ain't Worth Missing
TTITLE2=Under The Fall
TTITLE3=Some Kinda Good Kinda Hold On Me
TTITLE4=Wish I Didn't Know Now
TTITLE5=Ain't No Thang
TTITLE6=Valentine
TTITLE7=A Little Less Talk And A Lot More Action
TTITLE8=Mama Come Quick
TTITLE9=Close But No Guitar
EXTD=
EXTT0=
EXTT1=
EXTT2=
EXTT3=
EXTT4=
EXTT5=
EXTT6=
EXTT7=
EXTT8=
EXTT9=
PLAYORDER=
